<svg width="48" xmlns="http://www.w3.org/2000/svg" height="48">
 <defs>
  <linearGradient id="a" y1="543.8" y2="503.8" gradientUnits="userSpaceOnUse" x2="0">
   <stop stop-color="#197cf1"/>
   <stop offset="1" stop-color="#20bcfa"/>
  </linearGradient>
  <linearGradient id="b" y1="503.8" y2="543.8" x2="0" gradientUnits="userSpaceOnUse">
   <stop stop-color="#abf9c7"/>
   <stop offset="1" stop-color="#54d883"/>
  </linearGradient>
 </defs>
 <g transform="translate(-384.57-499.8)">
  <rect width="40" x="388.57" y="503.8" fill="url(#a)" rx="20" height="40"/>
  <path fill="url(#b)" fill-rule="evenodd" d="m408.57 503.8c-1.452 0-2.864.16-4.227.451l-1.773 3.549-2.68-2.01c-4.806 2.311-8.529 6.472-10.254 11.584l3.934-1.574 3 2 1-3 13-7-.793-3.961c-.4-.024-.801-.039-1.207-.039m14.811 6.568l-.811 2.432 1 1-4 6 2 7 6.633.83c.239-1.239.367-2.519.367-3.83 0-3.425-.857-6.641-2.361-9.453l-1.639-.547.596-1.193c-.535-.794-1.144-1.531-1.785-2.238m-34.414 9.432c-.221 1.096-.346 2.227-.381 3.381l6.984 2.619-1-3-2-3zm6.604 6l5 12v4.338c2.449 1.065 5.151 1.662 8 1.662.199 0 .395-.008.592-.014l6.408-10.986-16-9z"/>
  <path opacity=".2" d="m4.051 23.5c-.004.17-.051.329-.051.5 0 11.08 8.92 20 20 20 11.08 0 20-8.92 20-20 0-.171-.047-.33-.051-.5-.03 1.206-.121 2.398-.354 3.541-.266 1.304-.657 2.561-1.162 3.758-.505 1.197-1.122 2.335-1.84 3.398-.717 1.064-1.536 2.053-2.439 2.957-.904.904-1.893 1.722-2.957 2.439-1.064.717-2.201 1.335-3.398 1.84-1.197.505-2.454.897-3.758 1.162-1.304.266-2.656.404-4.04.404-1.385 0-2.737-.139-4.04-.404-1.304-.266-2.561-.657-3.758-1.162-.599-.252-1.183-.533-1.75-.84-.567-.307-1.117-.641-1.648-1-1.064-.717-2.053-1.536-2.957-2.439-.904-.904-1.722-1.893-2.439-2.957-.717-1.064-1.335-2.201-1.84-3.398-.505-1.197-.897-2.454-1.162-3.758-.233-1.143-.323-2.335-.354-3.541" transform="translate(384.57 499.8)"/>
 </g>
</svg>
