<?xml version="1.0" encoding="UTF-8" standalone="no"?>

<!-- Created with Inkscape (http://www.inkscape.org/) -->
<svg width="32" version="1.1" xmlns="http://www.w3.org/2000/svg" height="32" xmlns:xlink="http://www.w3.org/1999/xlink" xmlns:inkscape="http://www.inkscape.org/namespaces/inkscape">
 <defs id="defs5455">
  <linearGradient inkscape:collect="always" id="linearGradient4293">
   <stop id="stop4295"/>
   <stop offset="1" style="stop-opacity:0" id="stop4297"/>
  </linearGradient>
  <linearGradient inkscape:collect="always" id="linearGradient4303-6">
   <stop style="stop-color:#c6cdd1" id="stop4305-7"/>
   <stop offset="1" style="stop-color:#e0e5e7" id="stop4307-0"/>
  </linearGradient>
  <linearGradient inkscape:collect="always" id="linearGradient4298">
   <stop style="stop-color:#42a603" id="stop4300"/>
   <stop offset="1" style="stop-color:#78da06" id="stop4302"/>
  </linearGradient>
  <linearGradient inkscape:collect="always" xlink:href="#linearGradient4298" id="linearGradient4308" y1="539.79797" y2="527.79797" x2="0" gradientUnits="userSpaceOnUse"/>
  <linearGradient inkscape:collect="always" id="linearGradient4643-8" xlink:href="#linearGradient4303-6" y1="543.79797" y2="502.65509" x2="0" gradientUnits="userSpaceOnUse" gradientTransform="matrix(0.66666726 0 0 0.63518419 141.19014 191.51873)"/>
  <linearGradient inkscape:collect="always" id="linearGradient4183" xlink:href="#linearGradient4293" y1="525.79797" y2="540.79797" x1="391.57144" gradientUnits="userSpaceOnUse" x2="406.57147" gradientTransform="matrix(1 0 0 1 12.999989 -6.99997)"/>
  <linearGradient inkscape:collect="always" xlink:href="#linearGradient4293" id="linearGradient4256" y1="11" x1="5" y2="27" x2="21" gradientUnits="userSpaceOnUse"/>
 </defs>
 <metadata id="metadata5458"/>
 <g inkscape:label="Capa 1" inkscape:groupmode="layer" id="layer1" transform="matrix(1 0 0 1 -384.57143 -515.798)">
  <g id="g4244" transform="matrix(1 0 0 1 -12.999996 6.999998)">
   <rect width="32" x="397.57144" y="510.79797" rx="0" height="28" style="fill:url(#linearGradient4643-8)" id="rect4641-5"/>
   <path inkscape:connector-curvature="0" style="fill:url(#linearGradient4183);opacity:0.2;fill-rule:evenodd" id="path4167" d="m 398.57142,536.79803 30,-20 1.00001,1 -1e-5,20.99997 -29,3e-5 z"/>
   <rect width="31.999983" x="397.57141" y="537.79797" height="1" style="fill:#99a1a7" id="rect4645-7-7"/>
   <rect width="32.00001" x="397.57141" y="510.79797" height="4" style="fill:#566069" id="rect4647-8"/>
   <rect width="31.999968" x="397.57141" y="514.79797" height="1" style="fill:#3daee9" id="rect4649-8"/>
   <rect width="30" x="398.57141" y="516.79797" height="20.00003" style="fill:#ffffff" id="rect4653-5"/>
   <rect width="2" x="426.57141" y="511.79797" rx="1" height="2" style="fill:#eff0f1" id="rect4661-1"/>
  </g>
  <path style="fill:url(#linearGradient4256);opacity:0.2;fill-rule:evenodd" id="path4242" d="M 21 18 L 12 24 L 18 30 L 25 30 L 32 30 L 21 18 z " transform="matrix(1 0 0 1 384.57143 515.798)"/>
  <path inkscape:connector-curvature="0" style="fill:url(#linearGradient4308);fill-rule:evenodd" id="path4237-9" d="m 396.57141,527.79796 0,12 9,-6 z"/>
 </g>
</svg>
