<svg width="18" height="18" viewBox="0 0 18 18" fill="none" xmlns="http://www.w3.org/2000/svg">
<path fill-rule="evenodd" clip-rule="evenodd" d="M15 3.75H3C2.175 3.75 1.5075 4.425 1.5075 5.25L1.5 12.75C1.5 13.575 2.175 14.25 3 14.25H15C15.825 14.25 16.5 13.575 16.5 12.75V5.25C16.5 4.425 15.825 3.75 15 3.75ZM15 5.25V12.75H3V5.25H15ZM9.75 6H8.25V7.5H9.75V6ZM8.25 8.25H9.75V9.75H8.25V8.25ZM7.5 6H6V7.5H7.5V6ZM6 8.25H7.5V9.75H6V8.25ZM5.25 8.25H3.75V9.75H5.25V8.25ZM3.75 6H5.25V7.5H3.75V6ZM12 10.5H6V12H12V10.5ZM10.5 8.25H12V9.75H10.5V8.25ZM12 6H10.5V7.5H12V6ZM12.75 8.25H14.25V9.75H12.75V8.25ZM14.25 6H12.75V7.5H14.25V6Z" fill="#898989"/>
</svg>
