<svg width="13" height="24" viewBox="0 0 13 24" fill="none" xmlns="http://www.w3.org/2000/svg">
<path d="M11.2258 14.1958V5.03227C11.2258 3.69763 10.6956 2.41765 9.75191 1.47392C8.80818 0.530184 7.5282 0 6.19356 0C4.85892 0 3.57895 0.530184 2.63521 1.47392C1.69148 2.41765 1.1613 3.69763 1.1613 5.03227V14.1958C0.497243 15.1214 0.101292 16.2121 0.016988 17.3481C-0.0673164 18.484 0.163292 19.6213 0.68345 20.6347C1.20361 21.6481 1.99317 22.4984 2.9653 23.0921C3.93742 23.6859 5.05446 24 6.19356 24C7.33266 24 8.4497 23.6859 9.42183 23.0921C10.394 22.4984 11.1835 21.6481 11.7037 20.6347C12.2238 19.6213 12.4544 18.484 12.3701 17.3481C12.2858 16.2121 11.8899 15.1214 11.2258 14.1958ZM6.19356 21.6775C5.46013 21.6775 4.74178 21.4691 4.12218 21.0767C3.50257 20.6843 3.0072 20.1239 2.69376 19.4608C2.38032 18.7977 2.26171 18.0592 2.35173 17.3313C2.44176 16.6035 2.73672 15.9161 3.20227 15.3494C3.38386 15.1387 3.48379 14.8698 3.48388 14.5916V5.03227C3.48388 4.31362 3.76936 3.6244 4.27753 3.11623C4.78569 2.60807 5.47491 2.32259 6.19356 2.32259C6.91222 2.32259 7.60144 2.60807 8.1096 3.11623C8.61776 3.6244 8.90325 4.31362 8.90325 5.03227V14.5907C8.90299 14.8621 8.99784 15.1251 9.17131 15.3339C9.64084 15.8995 9.93963 16.5871 10.0327 17.3162C10.1258 18.0454 10.0094 18.786 9.69704 19.4514C9.38469 20.1168 8.88934 20.6795 8.26891 21.0737C7.64848 21.4679 6.92864 21.6773 6.19356 21.6775ZM8.51615 17.8065C8.51623 18.2142 8.40898 18.6148 8.20518 18.9679C8.00138 19.321 7.70821 19.6143 7.35515 19.8182C7.00208 20.0221 6.60156 20.1295 6.19384 20.1295C5.78612 20.1296 5.38558 20.0223 5.03246 19.8185C4.67935 19.6146 4.38611 19.3214 4.18223 18.9684C3.97834 18.6153 3.871 18.2148 3.87098 17.807C3.87096 17.3993 3.97827 16.9988 4.18212 16.6457C4.38597 16.2926 4.67918 15.9994 5.03227 15.7955V8.51615C5.03227 8.20815 5.15462 7.91277 5.37241 7.69499C5.59019 7.4772 5.88557 7.35485 6.19356 7.35485C6.50156 7.35485 6.79694 7.4772 7.01472 7.69499C7.23251 7.91277 7.35486 8.20815 7.35486 8.51615V15.7955C7.70787 15.9993 8.00102 16.2925 8.20487 16.6454C8.40872 16.9984 8.51607 17.3989 8.51615 17.8065Z" fill="white"/>
</svg>
