<svg width="20" height="20" viewBox="0 0 20 20" fill="none" xmlns="http://www.w3.org/2000/svg">
<path d="M14.1922 10.4422L7.94217 16.6922C7.8841 16.7502 7.81516 16.7963 7.73929 16.8277C7.66342 16.8592 7.5821 16.8753 7.49998 16.8753C7.41786 16.8753 7.33654 16.8592 7.26067 16.8277C7.1848 16.7963 7.11586 16.7502 7.05779 16.6922C6.99972 16.6341 6.95366 16.5652 6.92224 16.4893C6.89081 16.4134 6.87463 16.3321 6.87463 16.25C6.87463 16.1679 6.89081 16.0865 6.92224 16.0107C6.95366 15.9348 6.99972 15.8659 7.05779 15.8078L12.8664 9.99998L7.05779 4.19217C6.94052 4.07489 6.87463 3.91583 6.87463 3.74998C6.87463 3.58413 6.94052 3.42507 7.05779 3.30779C7.17507 3.19052 7.33413 3.12463 7.49998 3.12463C7.66583 3.12463 7.82489 3.19052 7.94217 3.30779L14.1922 9.55779C14.2503 9.61584 14.2964 9.68477 14.3278 9.76064C14.3593 9.83652 14.3755 9.91785 14.3755 9.99998C14.3755 10.0821 14.3593 10.1634 14.3278 10.2393C14.2964 10.3152 14.2503 10.3841 14.1922 10.4422Z" fill="#898989"/>
</svg>
