<svg width="32" height="31" viewBox="0 0 32 31" fill="none" xmlns="http://www.w3.org/2000/svg">
<path d="M28.5706 15.2518C28.5706 22.1913 22.9386 27.8233 15.9992 27.8233C9.05973 27.8233 4.82316 20.8336 4.82316 20.8336M4.82316 20.8336H10.5054M4.82316 20.8336V27.1193M3.42773 15.2518C3.42773 8.31242 9.00945 2.68042 15.9992 2.68042C24.3843 2.68042 28.5706 9.67013 28.5706 9.67013M28.5706 9.67013V3.38442M28.5706 9.67013H22.9889" stroke="#898989" stroke-width="1.5" stroke-linecap="round" stroke-linejoin="round"/>
<path d="M15.9998 11.6768C15.2928 11.6768 14.6016 11.8864 14.0137 12.2793C13.4258 12.6721 12.9676 13.2304 12.697 13.8837C12.4264 14.5369 12.3556 15.2557 12.4935 15.9492C12.6315 16.6427 12.972 17.2797 13.4719 17.7797C13.9719 18.2797 14.6089 18.6201 15.3024 18.7581C15.9959 18.896 16.7147 18.8252 17.3679 18.5546C18.0212 18.2841 18.5795 17.8258 18.9723 17.2379C19.3652 16.65 19.5748 15.9588 19.5748 15.2518C19.5738 14.304 19.1968 13.3953 18.5265 12.7251C17.8563 12.0549 16.9477 11.6779 15.9998 11.6768ZM15.9998 17.1768C15.6191 17.1768 15.2469 17.0639 14.9304 16.8524C14.6138 16.6408 14.3671 16.3402 14.2214 15.9884C14.0757 15.6367 14.0376 15.2496 14.1118 14.8762C14.1861 14.5028 14.3694 14.1598 14.6387 13.8906C14.9079 13.6214 15.2509 13.438 15.6243 13.3638C15.9977 13.2895 16.3848 13.3276 16.7365 13.4733C17.0883 13.619 17.3889 13.8657 17.6004 14.1823C17.8119 14.4989 17.9248 14.871 17.9248 15.2518C17.9248 15.7623 17.722 16.252 17.361 16.613C17 16.974 16.5104 17.1768 15.9998 17.1768ZM22.3248 15.3061V15.1975L23.2873 13.9937C23.3681 13.8928 23.4241 13.7743 23.4507 13.6479C23.4774 13.5214 23.4739 13.3905 23.4407 13.2656C23.267 12.6105 23.0074 11.9812 22.6686 11.3942C22.6033 11.2823 22.5126 11.1873 22.4038 11.1169C22.295 11.0466 22.1711 11.0028 22.0423 10.9893L20.5105 10.8174L20.4342 10.7411L20.2623 9.20865C20.2487 9.07991 20.2049 8.9562 20.1345 8.84751C20.0642 8.73883 19.9693 8.64822 19.8574 8.58303C19.2704 8.24319 18.6409 7.98265 17.9853 7.80822C17.8604 7.77545 17.7294 7.7725 17.6031 7.79961C17.4767 7.82671 17.3585 7.88312 17.258 7.96428L16.0542 8.92678H15.9455L14.7417 7.96428C14.6409 7.88348 14.5224 7.82752 14.396 7.80089C14.2695 7.77426 14.1385 7.77771 14.0137 7.81097C13.3584 7.98574 12.7291 8.2465 12.1423 8.58647C12.0308 8.65139 11.9361 8.74157 11.8657 8.84974C11.7954 8.95792 11.7514 9.08108 11.7373 9.20934L11.5655 10.7411L11.4892 10.8174L9.95672 10.9893C9.82798 11.003 9.70426 11.0467 9.59558 11.1171C9.48689 11.1874 9.39629 11.2824 9.3311 11.3942C8.99221 11.9814 8.7326 12.6109 8.55903 13.2663C8.52589 13.3911 8.5225 13.5219 8.54912 13.6482C8.57575 13.7745 8.63166 13.8929 8.71235 13.9937L9.67485 15.1975V15.3061L8.71235 16.5099C8.63155 16.6108 8.57558 16.7292 8.54895 16.8557C8.52232 16.9821 8.52578 17.1131 8.55903 17.238C8.73402 17.8933 8.99502 18.5225 9.33522 19.1093C9.40008 19.2208 9.49014 19.3154 9.5982 19.3857C9.70625 19.4561 9.82927 19.5001 9.95741 19.5143L11.4892 19.6848L11.5655 19.7611L11.7373 21.2949C11.751 21.4236 11.7948 21.5474 11.8651 21.656C11.9355 21.7647 12.0304 21.8553 12.1423 21.9205C12.7293 22.2604 13.3588 22.5209 14.0143 22.6953C14.1393 22.7281 14.2703 22.7311 14.3966 22.7039C14.523 22.6768 14.6412 22.6204 14.7417 22.5393L15.9455 21.5768H16.0542L17.258 22.5393C17.3588 22.6201 17.4773 22.676 17.6037 22.7027C17.7302 22.7293 17.8611 22.7258 17.986 22.6926C18.6411 22.5189 19.2704 22.2593 19.8574 21.9205C19.9692 21.8558 20.0642 21.7657 20.1347 21.6575C20.2053 21.5493 20.2495 21.426 20.2637 21.2977L20.4342 19.7659L20.5105 19.6896L22.043 19.5143C22.1714 19.5 22.2946 19.4559 22.4028 19.3853C22.511 19.3147 22.6011 19.2197 22.6658 19.108C23.0057 18.5209 23.2662 17.8914 23.4407 17.2359C23.4736 17.1113 23.4769 16.9808 23.4502 16.8547C23.4236 16.7286 23.3678 16.6105 23.2873 16.5099L22.3248 15.3061ZM20.6666 14.9699C20.6776 15.1577 20.6776 15.3459 20.6666 15.5337C20.6543 15.7378 20.7183 15.9391 20.846 16.0988L21.7288 17.2022C21.6455 17.4489 21.546 17.6898 21.4311 17.9234L20.0265 18.0795C19.8232 18.1027 19.6357 18.2007 19.5006 18.3545C19.3757 18.4952 19.2426 18.6283 19.1018 18.7532C18.9481 18.8883 18.8501 19.0758 18.8268 19.2792L18.6715 20.683C18.4379 20.7984 18.197 20.8983 17.9503 20.9821L16.8468 20.0987C16.7004 19.9818 16.5186 19.9183 16.3312 19.9185C16.3147 19.9185 16.2982 19.9185 16.2817 19.9185C16.094 19.9295 15.9057 19.9295 15.718 19.9185C15.514 19.9064 15.3128 19.9701 15.1528 20.0973L14.0494 20.9807C13.8028 20.8974 13.5618 20.7979 13.3282 20.683L13.1722 19.2785C13.1489 19.0751 13.0509 18.8877 12.8972 18.7525C12.7565 18.6276 12.6233 18.4945 12.4984 18.3538C12.3633 18.2 12.1758 18.102 11.9725 18.0788L10.5686 17.9234C10.4532 17.6898 10.3533 17.4489 10.2695 17.2022L11.1523 16.0988C11.2801 15.9391 11.344 15.7378 11.3317 15.5337C11.3207 15.3459 11.3207 15.1577 11.3317 14.9699C11.344 14.7658 11.2801 14.5644 11.1523 14.4048L10.2709 13.3013C10.3542 13.0547 10.4537 12.8138 10.5686 12.5802L11.9732 12.4241C12.1765 12.4008 12.364 12.3028 12.4991 12.1491C12.624 12.0084 12.7571 11.8752 12.8978 11.7503C13.0516 11.6152 13.1496 11.4278 13.1728 11.2244L13.3282 9.82053C13.5618 9.70515 13.8027 9.60524 14.0494 9.52147L15.1528 10.4049C15.3128 10.5321 15.514 10.5957 15.718 10.5837C15.9057 10.5727 16.094 10.5727 16.2817 10.5837C16.4857 10.5961 16.6871 10.5324 16.8468 10.4049L17.9503 9.52147C18.197 9.60524 18.4379 9.70515 18.6715 9.82053L18.8275 11.2251C18.8508 11.4284 18.9488 11.6159 19.1025 11.751C19.2432 11.8759 19.3764 12.0091 19.5013 12.1498C19.6364 12.3035 19.8239 12.4015 20.0272 12.4248L21.4311 12.5802C21.5465 12.8137 21.6464 13.0547 21.7302 13.3013L20.8474 14.4048C20.7191 14.5642 20.6547 14.7656 20.6666 14.9699Z" fill="#898989"/>
</svg>
