<svg width="32" height="32" viewBox="0 0 32 32" fill="none" xmlns="http://www.w3.org/2000/svg">
<g clip-path="url(#clip0_836_38508)">
<path d="M9.33398 18.6666C11.5473 18.6666 13.334 16.88 13.334 14.6666C13.334 12.4533 11.5473 10.6666 9.33398 10.6666C7.12065 10.6666 5.33398 12.4533 5.33398 14.6666C5.33398 16.88 7.12065 18.6666 9.33398 18.6666ZM9.33398 13.3333C10.0673 13.3333 10.6673 13.9333 10.6673 14.6666C10.6673 15.4 10.0673 16 9.33398 16C8.60065 16 8.00065 15.4 8.00065 14.6666C8.00065 13.9333 8.60065 13.3333 9.33398 13.3333ZM25.334 9.33329H14.6673V20H4.00065V6.66663H1.33398V26.6666H4.00065V22.6666H28.0006V26.6666H30.6673V14.6666C30.6673 11.72 28.2806 9.33329 25.334 9.33329ZM28.0006 20H17.334V12H25.334C26.8006 12 28.0006 13.2 28.0006 14.6666V20Z" fill="white"/>
</g>
<defs>
<clipPath id="clip0_836_38508">
<rect width="32" height="32" fill="white"/>
</clipPath>
</defs>
</svg>
