<svg width="22" height="21" viewBox="0 0 22 21" fill="none" xmlns="http://www.w3.org/2000/svg">
<path d="M18.8288 11.9127C18.8883 12.1555 18.849 12.4119 18.7195 12.6257C18.59 12.8395 18.3809 12.9931 18.1382 13.0528L16.5141 13.4519L16.9384 15.0359C17.0032 15.2774 16.9694 15.5348 16.8445 15.7514C16.7195 15.968 16.5136 16.1261 16.2721 16.1909C16.0306 16.2557 15.7732 16.2219 15.5566 16.097C15.34 15.972 15.1819 15.7662 15.1171 15.5246L14.5443 13.3875L11.942 11.8844V14.8874L13.5512 16.4966C13.6389 16.5843 13.7085 16.6884 13.7559 16.803C13.8034 16.9176 13.8278 17.0404 13.8278 17.1644C13.8278 17.2885 13.8034 17.4113 13.7559 17.5259C13.7085 17.6405 13.6389 17.7446 13.5512 17.8323C13.4635 17.92 13.3594 17.9896 13.2448 18.037C13.1302 18.0845 13.0074 18.1089 12.8833 18.1089C12.7593 18.1089 12.6365 18.0845 12.5219 18.037C12.4073 17.9896 12.3032 17.92 12.2155 17.8323L10.9992 16.616L9.78054 17.8354C9.69284 17.9231 9.58872 17.9927 9.47412 18.0402C9.35953 18.0876 9.23672 18.1121 9.11268 18.1121C8.98865 18.1121 8.86583 18.0876 8.75124 18.0402C8.63665 17.9927 8.53253 17.9231 8.44483 17.8354C8.35712 17.7477 8.28755 17.6436 8.24009 17.529C8.19262 17.4144 8.16819 17.2916 8.16819 17.1676C8.16819 17.0435 8.19262 16.9207 8.24009 16.8061C8.28755 16.6915 8.35712 16.5874 8.44483 16.4997L10.0563 14.8874V11.8844L7.45404 13.3875L6.88125 15.5246C6.81645 15.7662 6.65835 15.972 6.44175 16.097C6.22514 16.2219 5.96777 16.2557 5.72625 16.1909C5.48474 16.1261 5.27886 15.968 5.1539 15.7514C5.02895 15.5348 4.99516 15.2774 5.05997 15.0359L5.48425 13.4519L3.86018 13.0528C3.73718 13.026 3.6208 12.9748 3.5179 12.9023C3.415 12.8298 3.32766 12.7374 3.26103 12.6306C3.19441 12.5237 3.14985 12.4047 3.12998 12.2804C3.11011 12.1561 3.11534 12.029 3.14535 11.9068C3.17537 11.7845 3.22956 11.6695 3.30473 11.5685C3.37991 11.4676 3.47454 11.3827 3.58305 11.3188C3.69157 11.255 3.81176 11.2136 3.93654 11.197C4.06133 11.1803 4.18818 11.1889 4.30961 11.2221L6.50097 11.7603L9.11347 10.2517L6.50097 8.74314L4.30961 9.28135C4.23611 9.29966 4.16064 9.3089 4.0849 9.30885C3.85474 9.30833 3.63271 9.22365 3.46067 9.07075C3.28864 8.91785 3.17847 8.70731 3.15093 8.4788C3.12339 8.25029 3.18039 8.0196 3.31118 7.83021C3.44197 7.64082 3.63752 7.50582 3.86097 7.45064L5.48504 7.05149L5.06075 5.46749C4.99595 5.22598 5.02974 4.96861 5.15469 4.752C5.27964 4.5354 5.48552 4.3773 5.72704 4.31249C5.96856 4.24769 6.22593 4.28147 6.44253 4.40643C6.65914 4.53138 6.81723 4.73726 6.88204 4.97878L7.45483 7.11592L10.0563 8.61821V5.61599L8.44718 4.00371C8.35948 3.916 8.28991 3.81188 8.24244 3.69729C8.19498 3.5827 8.17055 3.45988 8.17055 3.33585C8.17055 3.08536 8.27006 2.84512 8.44718 2.66799C8.62431 2.49087 8.86454 2.39136 9.11504 2.39136C9.23907 2.39136 9.36189 2.41579 9.47648 2.46325C9.59107 2.51072 9.69519 2.58029 9.7829 2.66799L10.9992 3.88742L12.2178 2.66799C12.3055 2.58029 12.4097 2.51072 12.5242 2.46325C12.6388 2.41579 12.7617 2.39136 12.8857 2.39136C13.0097 2.39136 13.1325 2.41579 13.2471 2.46325C13.3617 2.51072 13.4658 2.58029 13.5535 2.66799C13.6412 2.7557 13.7108 2.85982 13.7583 2.97441C13.8057 3.089 13.8302 3.21182 13.8302 3.33585C13.8302 3.45988 13.8057 3.5827 13.7583 3.69729C13.7108 3.81188 13.6412 3.916 13.5535 4.00371L11.942 5.61599V8.62056L14.5443 7.11828L15.1171 4.98114C15.1819 4.73962 15.34 4.53374 15.5566 4.40879C15.7732 4.28383 16.0306 4.25004 16.2721 4.31485C16.5136 4.37966 16.7195 4.53775 16.8445 4.75436C16.9694 4.97096 17.0032 5.22833 16.9384 5.46985L16.5141 7.05385L18.1382 7.45299C18.3596 7.51002 18.5527 7.64556 18.6817 7.83437C18.8106 8.02318 18.8665 8.25241 18.839 8.47939C18.8116 8.70636 18.7025 8.91562 18.5323 9.06821C18.362 9.2208 18.1421 9.30632 17.9135 9.30885C17.8375 9.30896 17.7617 9.29973 17.688 9.28135L15.4966 8.74314L12.8849 10.2517L15.4974 11.7603L17.6888 11.2221C17.9315 11.1626 18.188 11.2019 18.4018 11.3314C18.6155 11.4609 18.7692 11.67 18.8288 11.9127Z" fill="#323232"/>
</svg>
