<svg width="24" height="24" viewBox="0 0 24 24" fill="none" xmlns="http://www.w3.org/2000/svg">
<path d="M22.8759 12.7501V18.7501C22.8759 19.0484 22.7574 19.3346 22.5464 19.5456C22.3355 19.7565 22.0493 19.8751 21.7509 19.8751H15.7509C15.4526 19.8751 15.1664 19.7565 14.9554 19.5456C14.7445 19.3346 14.6259 19.0484 14.6259 18.7501C14.6259 18.4517 14.7445 18.1656 14.9554 17.9546C15.1664 17.7436 15.4526 17.6251 15.7509 17.6251H19.0322L12.7509 11.3438L9.79687 14.2988C9.69236 14.4037 9.56816 14.4869 9.43142 14.5437C9.29467 14.6005 9.14806 14.6297 9 14.6297C8.85193 14.6297 8.70532 14.6005 8.56858 14.5437C8.43183 14.4869 8.30764 14.4037 8.20312 14.2988L1.45312 7.54883C1.24178 7.33748 1.12305 7.05084 1.12305 6.75195C1.12305 6.60396 1.1522 6.45741 1.20883 6.32069C1.26547 6.18396 1.34848 6.05972 1.45312 5.95508C1.55777 5.85043 1.682 5.76742 1.81873 5.71078C1.95546 5.65415 2.102 5.625 2.25 5.625C2.54888 5.625 2.83553 5.74373 3.04687 5.95508L9.00094 11.9063L11.955 8.95133C12.0595 8.84645 12.1837 8.76323 12.3205 8.70645C12.4572 8.64967 12.6038 8.62044 12.7519 8.62044C12.8999 8.62044 13.0465 8.64967 13.1833 8.70645C13.32 8.76323 13.4442 8.84645 13.5487 8.95133L20.6259 16.0313V12.7501C20.6259 12.4517 20.7445 12.1656 20.9554 11.9546C21.1664 11.7436 21.4526 11.6251 21.7509 11.6251C22.0493 11.6251 22.3355 11.7436 22.5464 11.9546C22.7574 12.1656 22.8759 12.4517 22.8759 12.7501Z" fill="#2CDE85"/>
</svg>
