<svg width="34" height="34" viewBox="0 0 34 34" fill="none" xmlns="http://www.w3.org/2000/svg">
<path d="M17.9138 0.819694C17.6459 0.632267 17.3269 0.531738 17 0.531738C16.6731 0.531738 16.3541 0.632267 16.0863 0.819694C14.0326 2.33318 12.1537 4.07043 10.4842 5.99938C6.75352 10.2839 4.78125 14.8248 4.78125 19.1252C4.78125 22.3659 6.06858 25.4737 8.36004 27.7652C10.6515 30.0567 13.7594 31.344 17 31.344C20.2406 31.344 23.3485 30.0567 25.64 27.7652C27.9314 25.4737 29.2188 22.3659 29.2188 19.1252C29.2188 8.85087 18.3759 1.14243 17.9138 0.819694ZM17 28.1565C14.6055 28.154 12.3098 27.2017 10.6167 25.5086C8.92351 23.8154 7.97121 21.5197 7.96875 19.1252C7.96875 14.7013 10.625 10.7089 12.843 8.14032C14.1093 6.68573 15.5003 5.34454 17 4.13204C18.4997 5.34454 19.8907 6.68573 21.157 8.14032C23.375 10.7089 26.0312 14.7013 26.0312 19.1252C26.0288 21.5197 25.0765 23.8154 23.3833 25.5086C21.6902 27.2017 19.3945 28.154 17 28.1565ZM23.5902 21.1971C23.2565 22.2577 22.6718 23.222 21.8856 24.0082C21.0995 24.7944 20.1351 25.3791 19.0745 25.7127C18.9197 25.7609 18.7585 25.7855 18.5964 25.7858C18.2154 25.7861 17.847 25.6499 17.5578 25.4018C17.2686 25.1538 17.0778 24.8104 17.02 24.4339C16.9621 24.0573 17.0411 23.6725 17.2426 23.3492C17.4441 23.0258 17.7548 22.7854 18.1183 22.6713C18.6898 22.4918 19.2096 22.1768 19.6332 21.7531C20.0568 21.3295 20.3718 20.8098 20.5514 20.2382C20.6142 20.0385 20.7157 19.8531 20.8501 19.6927C20.9846 19.5322 21.1493 19.3998 21.3349 19.3029C21.7097 19.1074 22.1469 19.0688 22.5502 19.1956C22.7499 19.2584 22.9353 19.3599 23.0958 19.4944C23.2563 19.6288 23.3887 19.7935 23.4855 19.9791C23.5823 20.1647 23.6416 20.3676 23.66 20.5761C23.6784 20.7846 23.6556 20.9948 23.5928 21.1945L23.5902 21.1971Z" fill="white"/>
</svg>
