<svg width="22" height="21" viewBox="0 0 22 21" fill="none" xmlns="http://www.w3.org/2000/svg">
<path d="M11.5397 0.679387C11.3812 0.568505 11.1925 0.509033 10.9991 0.509033C10.8057 0.509033 10.617 0.568505 10.4585 0.679387C9.24358 1.57476 8.13203 2.60251 7.14437 3.74367C4.93729 6.27839 3.77051 8.96475 3.77051 11.5089C3.77051 13.426 4.53209 15.2646 5.88771 16.6203C7.24333 17.9759 9.08194 18.7375 10.9991 18.7375C12.9162 18.7375 14.7548 17.9759 16.1105 16.6203C17.4661 15.2646 18.2277 13.426 18.2277 11.5089C18.2277 5.4306 11.8131 0.870315 11.5397 0.679387ZM10.9991 16.8517C9.58251 16.8503 8.22438 16.2869 7.22272 15.2853C6.22105 14.2836 5.65768 12.9255 5.65622 11.5089C5.65622 8.89167 7.22765 6.52982 8.53979 5.01024C9.28895 4.14971 10.1118 3.35627 10.9991 2.63896C11.8863 3.35627 12.7092 4.14971 13.4584 5.01024C14.7705 6.52982 16.3419 8.89167 16.3419 11.5089C16.3405 12.9255 15.7771 14.2836 14.7754 15.2853C13.7738 16.2869 12.4156 16.8503 10.9991 16.8517ZM14.8978 12.7346C14.7004 13.362 14.3545 13.9325 13.8894 14.3976C13.4243 14.8627 12.8538 15.2087 12.2264 15.406C12.1348 15.4345 12.0394 15.4491 11.9435 15.4492C11.7181 15.4494 11.5001 15.3688 11.329 15.2221C11.158 15.0754 11.0451 14.8722 11.0109 14.6495C10.9767 14.4267 11.0234 14.199 11.1426 14.0077C11.2618 13.8165 11.4456 13.6742 11.6607 13.6067C11.9988 13.5005 12.3062 13.3142 12.5569 13.0635C12.8075 12.8129 12.9938 12.5055 13.1001 12.1673C13.1372 12.0492 13.1973 11.9395 13.2768 11.8446C13.3563 11.7496 13.4538 11.6713 13.5636 11.614C13.7854 11.4984 14.044 11.4755 14.2826 11.5505C14.4007 11.5877 14.5104 11.6477 14.6053 11.7273C14.7003 11.8068 14.7786 11.9042 14.8359 12.014C14.8932 12.1238 14.9282 12.2439 14.9391 12.3672C14.95 12.4906 14.9365 12.6149 14.8994 12.733L14.8978 12.7346Z" fill="#323232"/>
</svg>
