<svg width="22" height="21" viewBox="0 0 22 21" fill="none" xmlns="http://www.w3.org/2000/svg">
<path d="M20.7127 3.30982C20.6991 3.07942 20.6014 2.86203 20.4382 2.69883C20.275 2.53563 20.0576 2.43796 19.8272 2.42432C15.641 2.1776 12.2687 3.47482 10.8041 5.89246C9.85024 7.46389 9.81724 9.36296 10.6894 11.1803C10.3164 11.6559 10.0185 12.1859 9.80624 12.7517L9.0441 11.9896C9.60903 10.672 9.54931 9.30953 8.85553 8.16396C7.7571 6.35132 5.25538 5.38018 2.16438 5.55932C1.93399 5.57296 1.71659 5.67063 1.55339 5.83383C1.39019 5.99703 1.29252 6.21442 1.27888 6.44482C1.09974 9.53582 2.07088 12.0375 3.8851 13.136C4.5004 13.511 5.20738 13.7087 5.92796 13.7072C6.5423 13.7021 7.14918 13.5719 7.71153 13.3245L9.42831 15.0445V17.1659C9.42831 17.416 9.52765 17.6558 9.70447 17.8326C9.88129 18.0094 10.1211 18.1087 10.3712 18.1087C10.6212 18.1087 10.8611 18.0094 11.0379 17.8326C11.2147 17.6558 11.314 17.416 11.314 17.1659V14.8488C11.3121 14.006 11.5727 13.1835 12.0597 12.4956C12.848 12.8705 13.7082 13.07 14.581 13.0802C15.5204 13.0824 16.4421 12.8252 17.2446 12.3369C19.6622 10.8684 20.9595 7.49532 20.7127 3.30982ZM4.86174 11.5229C3.82538 10.8943 3.1976 9.36532 3.14653 7.42696C5.08488 7.47803 6.61467 8.10661 7.24246 9.14218C7.48796 9.5415 7.58866 10.0131 7.52767 10.4779L6.63746 9.58453C6.46033 9.40741 6.22009 9.3079 5.9696 9.3079C5.7191 9.3079 5.47887 9.40741 5.30174 9.58453C5.12461 9.76166 5.02511 10.0019 5.02511 10.2524C5.02511 10.5029 5.12461 10.7431 5.30174 10.9202L6.19274 11.8112C5.72923 11.8685 5.26001 11.7668 4.86174 11.5229ZM16.268 10.723C15.4304 11.2298 14.4608 11.3257 13.4543 11.0185L16.3811 8.09246C16.5582 7.91534 16.6577 7.6751 16.6577 7.4246C16.6577 7.17411 16.5582 6.93387 16.3811 6.75675C16.204 6.57962 15.9637 6.48011 15.7132 6.48011C15.4627 6.48011 15.2225 6.57962 15.0454 6.75675L12.1186 9.68275C11.8145 8.68018 11.9104 7.70668 12.414 6.87303C13.4174 5.21596 15.7926 4.27468 18.8569 4.28018C18.8679 7.34446 17.925 9.71575 16.268 10.723Z" fill="#323232"/>
</svg>
