<svg width="20" height="21" viewBox="0 0 20 21" fill="none" xmlns="http://www.w3.org/2000/svg">
<path d="M19.4369 4.86074L15.1407 0.563543C14.9621 0.384883 14.7501 0.243157 14.5167 0.146463C14.2833 0.0497686 14.0332 0 13.7806 0C13.528 0 13.2778 0.0497686 13.0444 0.146463C12.8111 0.243157 12.599 0.384883 12.4205 0.563543L0.563481 12.4215C0.384249 12.5995 0.242149 12.8114 0.145424 13.0448C0.048698 13.2782 -0.000729156 13.5285 8.12823e-06 13.7811V18.0783C8.12823e-06 18.5884 0.202621 19.0775 0.563276 19.4382C0.92393 19.7988 1.41308 20.0014 1.92312 20.0014H6.22033C6.47296 20.0021 6.72322 19.9527 6.95661 19.8559C7.19 19.7592 7.40188 19.6171 7.57997 19.438L19.4369 7.58003C19.7975 7.21939 20 6.73033 20 6.22039C20 5.71045 19.7975 5.22138 19.4369 4.86074ZM6.05782 17.6937H2.30775V13.9436L10.3848 5.86653L14.1349 9.61661L6.05782 17.6937ZM15.7696 7.98196L12.0195 4.23189L13.783 2.46839L17.5331 6.21846L15.7696 7.98196Z" fill="#323232"/>
</svg>
