<svg width="22" height="21" viewBox="0 0 22 21" fill="none" xmlns="http://www.w3.org/2000/svg">
<path d="M19.5516 10.7232C19.3645 10.0239 19.0286 9.37319 18.5668 8.81564C18.105 8.25809 17.5283 7.80682 16.8761 7.49268C16.2238 7.17853 15.5115 7.00892 14.7876 6.99544C14.0638 6.98196 13.3456 7.12493 12.6821 7.41457L13.7994 2.95407C13.847 2.76271 13.8334 2.56125 13.7606 2.37803C13.6877 2.1948 13.5592 2.03904 13.3932 1.93264C12.2943 1.23612 10.9681 0.992653 9.69344 1.2534C8.41876 1.51415 7.29475 2.25881 6.5576 3.33092C5.82045 4.40304 5.52753 5.71913 5.74041 7.00268C5.95328 8.28623 6.65536 9.43731 7.69914 10.2141L3.27714 11.4767C3.0871 11.531 2.91894 11.6437 2.79642 11.7988C2.6739 11.9539 2.60321 12.1435 2.59435 12.341C2.52802 13.649 2.9746 14.9312 3.8391 15.915C4.7036 16.8988 5.91781 17.5065 7.22346 17.6089C8.52912 17.7112 9.82319 17.3002 10.8304 16.4631C11.8377 15.626 12.4786 14.429 12.6169 13.1267L15.9169 16.3246C16.0591 16.4615 16.2407 16.5503 16.4361 16.5785C16.6315 16.6067 16.8308 16.5728 17.0059 16.4817C18.0224 15.955 18.8287 15.0972 19.2915 14.0502C19.7544 13.0031 19.8462 11.8295 19.5516 10.7232ZM10.0563 10.2518C10.0563 10.0653 10.1116 9.88301 10.2152 9.72796C10.3188 9.57291 10.466 9.45206 10.6383 9.38069C10.8106 9.30933 11.0002 9.29066 11.1831 9.32704C11.366 9.36342 11.534 9.45322 11.6658 9.58508C11.7977 9.71694 11.8875 9.88494 11.9239 10.0678C11.9603 10.2507 11.9416 10.4403 11.8702 10.6126C11.7989 10.7849 11.678 10.9321 11.523 11.0357C11.3679 11.1393 11.1856 11.1946 10.9991 11.1946C10.7491 11.1946 10.5093 11.0953 10.3324 10.9185C10.1556 10.7417 10.0563 10.5018 10.0563 10.2518ZM10.6849 3.02321C11.0605 3.02321 11.433 3.09053 11.7849 3.22199L10.732 7.43657C10.3296 7.47498 9.94004 7.59922 9.58968 7.8009C9.23932 8.00257 8.93626 8.27701 8.70092 8.60571C8.19675 8.19625 7.83182 7.64065 7.65631 7.01531C7.48081 6.38998 7.50336 5.72563 7.72085 5.11363C7.93834 4.50163 8.3401 3.97205 8.87087 3.59771C9.40164 3.22337 10.0354 3.02267 10.6849 3.02321ZM9.19199 15.2882C8.75198 15.5428 8.25676 15.6869 7.74882 15.7081C7.24088 15.7293 6.73538 15.627 6.27568 15.4099C5.81598 15.1928 5.41581 14.8674 5.1095 14.4617C4.80318 14.0559 4.59987 13.5819 4.51699 13.0804L8.69542 11.8869C8.92939 12.2168 9.23142 12.4928 9.58111 12.6961C9.93081 12.8994 10.3201 13.0253 10.7226 13.0654C10.6494 13.5266 10.474 13.9656 10.2091 14.3502C9.94429 14.7348 9.59676 15.0553 9.19199 15.2882ZM17.4184 13.5942C17.2305 13.9206 16.9854 14.2104 16.6948 14.4499L13.5708 11.4304C13.7394 11.0628 13.827 10.6633 13.8277 10.2589C13.8284 9.8545 13.7421 9.45469 13.5747 9.08657C14.1814 8.85494 14.845 8.81695 15.4741 8.9778C16.1033 9.13865 16.6672 9.49045 17.0883 9.98484C17.5094 10.4792 17.767 11.0919 17.8257 11.7387C17.8844 12.3854 17.7413 13.0345 17.4161 13.5966L17.4184 13.5942Z" fill="#323232"/>
</svg>
