<svg width="22" height="21" viewBox="0 0 22 21" fill="none" xmlns="http://www.w3.org/2000/svg">
<path d="M10.0565 3.02326V2.70897C10.0565 2.45891 10.1559 2.21909 10.3327 2.04227C10.5095 1.86545 10.7493 1.76611 10.9994 1.76611C11.2494 1.76611 11.4893 1.86545 11.6661 2.04227C11.8429 2.21909 11.9422 2.45891 11.9422 2.70897V3.02326C11.9422 3.27332 11.8429 3.51314 11.6661 3.68996C11.4893 3.86678 11.2494 3.96611 10.9994 3.96611C10.7493 3.96611 10.5095 3.86678 10.3327 3.68996C10.1559 3.51314 10.0565 3.27332 10.0565 3.02326ZM16.3422 10.2518C16.3422 11.3085 16.0289 12.3415 15.4418 13.2202C14.8547 14.0988 14.0203 14.7836 13.044 15.188C12.0677 15.5924 10.9935 15.6982 9.95705 15.492C8.92063 15.2859 7.96863 14.777 7.22142 14.0298C6.4742 13.2826 5.96535 12.3306 5.75919 11.2942C5.55304 10.2578 5.65884 9.18349 6.06323 8.20721C6.46762 7.23093 7.15243 6.39649 8.03105 5.80941C8.90968 5.22232 9.94267 4.90897 10.9994 4.90897C12.416 4.91043 13.7741 5.4738 14.7758 6.47547C15.7774 7.47713 16.3408 8.83526 16.3422 10.2518ZM14.4565 10.2518C14.4565 9.56807 14.2538 8.89967 13.8739 8.33114C13.494 7.76262 12.9541 7.31951 12.3224 7.05785C11.6907 6.79618 10.9956 6.72772 10.3249 6.86111C9.65431 6.99451 9.03831 7.32377 8.55482 7.80726C8.07133 8.29075 7.74207 8.90675 7.60867 9.57737C7.47528 10.248 7.54374 10.9431 7.8054 11.5748C8.06707 12.2065 8.51018 12.7465 9.0787 13.1263C9.64723 13.5062 10.3156 13.709 10.9994 13.709C11.916 13.7079 12.7947 13.3434 13.4428 12.6953C14.0909 12.0471 14.4555 11.1684 14.4565 10.2518ZM4.98946 5.57604C5.07716 5.66375 5.18128 5.73332 5.29587 5.78078C5.41046 5.82825 5.53328 5.85268 5.65732 5.85268C5.78135 5.85268 5.90417 5.82825 6.01876 5.78078C6.13335 5.73332 6.23747 5.66375 6.32517 5.57604C6.41288 5.48834 6.48245 5.38422 6.52991 5.26963C6.57738 5.15504 6.60181 5.03222 6.60181 4.90819C6.60181 4.78415 6.57738 4.66133 6.52991 4.54674C6.48245 4.43215 6.41288 4.32803 6.32517 4.24033L6.01089 3.92604C5.83376 3.74892 5.59352 3.64941 5.34303 3.64941C5.09253 3.64941 4.8523 3.74892 4.67517 3.92604C4.49805 4.10317 4.39854 4.3434 4.39854 4.5939C4.39854 4.84439 4.49805 5.08463 4.67517 5.26176L4.98946 5.57604ZM4.98946 14.926L4.67517 15.2403C4.58747 15.328 4.5179 15.4322 4.47043 15.5467C4.42297 15.6613 4.39854 15.7842 4.39854 15.9082C4.39854 16.0322 4.42297 16.155 4.47043 16.2696C4.5179 16.3842 4.58747 16.4883 4.67517 16.576C4.8523 16.7532 5.09253 16.8527 5.34303 16.8527C5.46706 16.8527 5.58988 16.8282 5.70447 16.7808C5.81906 16.7333 5.92318 16.6637 6.01089 16.576L6.32517 16.2618C6.5023 16.0846 6.60181 15.8444 6.60181 15.5939C6.60181 15.3434 6.5023 15.1032 6.32517 14.926C6.14805 14.7489 5.90781 14.6494 5.65732 14.6494C5.40682 14.6494 5.16658 14.7489 4.98946 14.926ZM16.3422 5.85183C16.4661 5.85193 16.5888 5.82762 16.7032 5.7803C16.8177 5.73298 16.9217 5.66357 17.0093 5.57604L17.3236 5.26176C17.5007 5.08463 17.6002 4.84439 17.6002 4.5939C17.6002 4.3434 17.5007 4.10317 17.3236 3.92604C17.1465 3.74892 16.9062 3.64941 16.6557 3.64941C16.4053 3.64941 16.165 3.74892 15.9879 3.92604L15.6736 4.24033C15.541 4.3722 15.4505 4.54055 15.4138 4.72396C15.3771 4.90737 15.3958 5.09755 15.4675 5.27032C15.5392 5.44309 15.6606 5.59063 15.8164 5.69417C15.9722 5.79772 16.1552 5.8526 16.3422 5.85183ZM17.0093 14.9276C16.8322 14.7505 16.592 14.651 16.3415 14.651C16.091 14.651 15.8507 14.7505 15.6736 14.9276C15.4965 15.1047 15.397 15.345 15.397 15.5955C15.397 15.846 15.4965 16.0862 15.6736 16.2633L15.9879 16.5776C16.165 16.7547 16.4053 16.8543 16.6557 16.8543C16.9062 16.8543 17.1465 16.7547 17.3236 16.5776C17.5007 16.4005 17.6002 16.1603 17.6002 15.9098C17.6002 15.6593 17.5007 15.419 17.3236 15.2419L17.0093 14.9276ZM4.71367 10.2518C4.71367 10.0018 4.61434 9.76195 4.43752 9.58513C4.2607 9.40831 4.02088 9.30897 3.77082 9.30897H3.45653C3.20647 9.30897 2.96665 9.40831 2.78983 9.58513C2.61301 9.76195 2.51367 10.0018 2.51367 10.2518C2.51367 10.5019 2.61301 10.7417 2.78983 10.9185C2.96665 11.0954 3.20647 11.1947 3.45653 11.1947H3.77082C4.02088 11.1947 4.2607 11.0954 4.43752 10.9185C4.61434 10.7417 4.71367 10.5019 4.71367 10.2518ZM10.9994 16.5375C10.7493 16.5375 10.5095 16.6369 10.3327 16.8137C10.1559 16.9905 10.0565 17.2303 10.0565 17.4804V17.7947C10.0565 18.0448 10.1559 18.2846 10.3327 18.4614C10.5095 18.6382 10.7493 18.7375 10.9994 18.7375C11.2494 18.7375 11.4893 18.6382 11.6661 18.4614C11.8429 18.2846 11.9422 18.0448 11.9422 17.7947V17.4804C11.9422 17.2303 11.8429 16.9905 11.6661 16.8137C11.4893 16.6369 11.2494 16.5375 10.9994 16.5375ZM18.5422 9.30897H18.228C17.9779 9.30897 17.7381 9.40831 17.5613 9.58513C17.3844 9.76195 17.2851 10.0018 17.2851 10.2518C17.2851 10.5019 17.3844 10.7417 17.5613 10.9185C17.7381 11.0954 17.9779 11.1947 18.228 11.1947H18.5422C18.7923 11.1947 19.0321 11.0954 19.2089 10.9185C19.3858 10.7417 19.4851 10.5019 19.4851 10.2518C19.4851 10.0018 19.3858 9.76195 19.2089 9.58513C19.0321 9.40831 18.7923 9.30897 18.5422 9.30897Z" fill="#323232"/>
</svg>
