<svg width="34" height="34" viewBox="0 0 34 34" fill="none" xmlns="http://www.w3.org/2000/svg">
<path d="M29.0634 13.782L18.4384 3.75727C18.4332 3.75273 18.4283 3.74785 18.4238 3.74266C18.0326 3.3869 17.5228 3.18976 16.994 3.18976C16.4653 3.18976 15.9555 3.3869 15.5643 3.74266L15.5497 3.75727L4.93664 13.782C4.72015 13.981 4.54735 14.2229 4.42915 14.4922C4.31096 14.7615 4.24996 15.0524 4.25 15.3465V27.625C4.25 28.1886 4.47388 28.7291 4.8724 29.1276C5.27091 29.5261 5.81141 29.75 6.375 29.75H12.75C13.3136 29.75 13.8541 29.5261 14.2526 29.1276C14.6511 28.7291 14.875 28.1886 14.875 27.625V21.25H19.125V27.625C19.125 28.1886 19.3489 28.7291 19.7474 29.1276C20.1459 29.5261 20.6864 29.75 21.25 29.75H27.625C28.1886 29.75 28.7291 29.5261 29.1276 29.1276C29.5261 28.7291 29.75 28.1886 29.75 27.625V15.3465C29.75 15.0524 29.689 14.7615 29.5708 14.4922C29.4527 14.2229 29.2798 13.981 29.0634 13.782ZM27.625 27.625H21.25V21.25C21.25 20.6864 21.0261 20.1459 20.6276 19.7474C20.2291 19.3489 19.6886 19.125 19.125 19.125H14.875C14.3114 19.125 13.7709 19.3489 13.3724 19.7474C12.9739 20.1459 12.75 20.6864 12.75 21.25V27.625H6.375V15.3465L6.38961 15.3332L17 5.3125L27.6117 15.3305L27.6263 15.3438L27.625 27.625Z" fill="white"/>
</svg>
