<svg width="32" height="32" viewBox="0 0 32 32" fill="none" xmlns="http://www.w3.org/2000/svg">
<g clip-path="url(#clip0_836_38511)">
<path d="M19.3327 15.6667C20.2532 15.6667 20.9993 14.9205 20.9993 14C20.9993 13.0796 20.2532 12.3334 19.3327 12.3334C18.4122 12.3334 17.666 13.0796 17.666 14C17.666 14.9205 18.4122 15.6667 19.3327 15.6667Z" fill="white"/>
<path d="M12.6667 15.6667C13.5871 15.6667 14.3333 14.9205 14.3333 14C14.3333 13.0796 13.5871 12.3334 12.6667 12.3334C11.7462 12.3334 11 13.0796 11 14C11 14.9205 11.7462 15.6667 12.6667 15.6667Z" fill="white"/>
<path d="M30.5873 15.12C30.254 13.1067 28.774 11.4667 26.8406 10.8933C26.134 9.4 25.134 8.09333 23.9207 7.01333C21.814 5.13333 19.0406 4 16.0007 4C12.9607 4 10.1873 5.13333 8.08065 7.01333C6.85398 8.09333 5.85398 9.41333 5.16065 10.8933C3.22732 11.4667 1.74732 13.0933 1.41398 15.12C1.36065 15.4 1.33398 15.6933 1.33398 16C1.33398 16.3067 1.36065 16.6 1.41398 16.88C1.74732 18.8933 3.22732 20.5333 5.16065 21.1067C5.85398 22.5867 6.85398 23.8933 8.05398 24.96C10.1607 26.8533 12.9473 28 16.0007 28C19.054 28 21.8406 26.8533 23.9606 24.96C25.1606 23.8933 26.1606 22.5733 26.854 21.1067C28.774 20.5333 30.254 18.9067 30.5873 16.88C30.6407 16.6 30.6673 16.3067 30.6673 16C30.6673 15.6933 30.6407 15.4 30.5873 15.12V15.12ZM25.334 18.6667C25.2006 18.6667 25.0806 18.64 24.9473 18.6267C24.6806 19.52 24.294 20.3467 23.8007 21.1067C22.134 23.6533 19.2673 25.3333 16.0007 25.3333C12.734 25.3333 9.86732 23.6533 8.20065 21.1067C7.70732 20.3467 7.32065 19.52 7.05398 18.6267C6.92065 18.64 6.80065 18.6667 6.66732 18.6667C5.20065 18.6667 4.00065 17.4667 4.00065 16C4.00065 14.5333 5.20065 13.3333 6.66732 13.3333C6.80065 13.3333 6.92065 13.36 7.05398 13.3733C7.32065 12.48 7.70732 11.6533 8.20065 10.8933C9.86732 8.34667 12.734 6.66667 16.0007 6.66667C19.2673 6.66667 22.134 8.34667 23.8007 10.8933C24.294 11.6533 24.6806 12.48 24.9473 13.3733C25.0806 13.36 25.2006 13.3333 25.334 13.3333C26.8006 13.3333 28.0006 14.5333 28.0006 16C28.0006 17.4667 26.8006 18.6667 25.334 18.6667ZM16.0007 22.6667C18.6806 22.6667 20.9873 21.0267 22.0006 18.6667H10.0007C11.014 21.0267 13.3207 22.6667 16.0007 22.6667Z" fill="white"/>
</g>
<defs>
<clipPath id="clip0_836_38511">
<rect width="32" height="32" fill="white"/>
</clipPath>
</defs>
</svg>
