<svg width="32" height="32" viewBox="0 0 32 32" fill="none" xmlns="http://www.w3.org/2000/svg">
<g clip-path="url(#clip0_836_38502)">
<path d="M25.3333 4H6.66667C5.2 4 4 5.2 4 6.66667V25.3333C4 26.8 5.2 28 6.66667 28H25.3333C26.8 28 28 26.8 28 25.3333V6.66667C28 5.2 26.8 4 25.3333 4ZM25.3333 25.3333H6.66667V6.66667H25.3333V25.3333ZM11.4267 8H8V11.44C9.89333 11.44 11.4267 9.89333 11.4267 8ZM16 8H13.72C13.72 11.1467 11.16 13.72 8 13.72V16C12.4267 16 16 12.4133 16 8ZM18.8533 15.8133L14.8533 20.9733L12 17.5333L8 22.6667H24L18.8533 15.8133Z" fill="white"/>
</g>
<defs>
<clipPath id="clip0_836_38502">
<rect width="32" height="32" fill="white"/>
</clipPath>
</defs>
</svg>
