<svg width="18" height="18" viewBox="0 0 18 18" fill="none" xmlns="http://www.w3.org/2000/svg">
<path d="M14.5589 5.67208C13.8298 4.94129 12.9632 4.36206 12.0091 3.96781C11.055 3.57356 10.0323 3.37207 9 3.37497H8.97187C4.64555 3.38974 1.125 6.96091 1.125 11.3294V12.9375C1.125 13.2358 1.24353 13.522 1.4545 13.733C1.66548 13.9439 1.95163 14.0625 2.25 14.0625H15.75C16.0484 14.0625 16.3345 13.9439 16.5455 13.733C16.7565 13.522 16.875 13.2358 16.875 12.9375V11.25C16.8779 10.2131 16.6746 9.18605 16.277 8.22848C15.8794 7.2709 15.2954 6.40192 14.5589 5.67208ZM15.75 12.9375H8.41711L12.2674 7.64294C12.3553 7.52229 12.3916 7.37168 12.3684 7.22426C12.3451 7.07684 12.2643 6.94468 12.1437 6.85684C12.023 6.76901 11.8724 6.73271 11.725 6.75591C11.5776 6.77912 11.4454 6.85994 11.3576 6.98059L7.02562 12.9375H2.25V11.3294C2.25 11.1129 2.26055 10.8991 2.28023 10.6875H3.9375C4.08668 10.6875 4.22976 10.6282 4.33525 10.5227C4.44074 10.4172 4.5 10.2742 4.5 10.125C4.5 9.97579 4.44074 9.83271 4.33525 9.72722C4.22976 9.62173 4.08668 9.56247 3.9375 9.56247H2.47992C3.20555 6.83013 5.57367 4.76434 8.4375 4.52388V6.18747C8.4375 6.33665 8.49676 6.47973 8.60225 6.58522C8.70774 6.69071 8.85082 6.74997 9 6.74997C9.14918 6.74997 9.29226 6.69071 9.39775 6.58522C9.50324 6.47973 9.5625 6.33665 9.5625 6.18747V4.52317C10.958 4.64061 12.2825 5.18854 13.3531 6.09125C14.4237 6.99397 15.1876 8.20691 15.5391 9.56247H14.0625C13.9133 9.56247 13.7702 9.62173 13.6648 9.72722C13.5593 9.83271 13.5 9.97579 13.5 10.125C13.5 10.2742 13.5593 10.4172 13.6648 10.5227C13.7702 10.6282 13.9133 10.6875 14.0625 10.6875H15.7268C15.7416 10.8738 15.75 11.0608 15.75 11.25V12.9375Z" fill="#FA0000"/>
</svg>
