<svg width="18" height="18" viewBox="0 0 18 18" fill="none" xmlns="http://www.w3.org/2000/svg">
<path d="M3.44109 5.67208C4.17023 4.94129 5.03683 4.36206 5.99091 3.96781C6.94499 3.57356 7.96768 3.37207 9 3.37497H9.02813C13.3545 3.38974 16.875 6.96091 16.875 11.3294V12.9375C16.875 13.2358 16.7565 13.522 16.5455 13.733C16.3345 13.9439 16.0484 14.0625 15.75 14.0625H2.25C1.95163 14.0625 1.66548 13.9439 1.45451 13.733C1.24353 13.522 1.125 13.2358 1.125 12.9375V11.25C1.12211 10.2131 1.32538 9.18605 1.723 8.22848C2.12061 7.2709 2.70463 6.40192 3.44109 5.67208ZM2.25 12.9375H9.58289L5.73258 7.64294C5.64475 7.52229 5.60844 7.37168 5.63165 7.22426C5.65486 7.07684 5.73567 6.94468 5.85633 6.85684C5.97698 6.76901 6.12758 6.73271 6.275 6.75591C6.42243 6.77912 6.55459 6.85994 6.64242 6.98059L10.9744 12.9375H15.75V11.3294C15.75 11.1129 15.7395 10.8991 15.7198 10.6875H14.0625C13.9133 10.6875 13.7702 10.6282 13.6648 10.5227C13.5593 10.4172 13.5 10.2742 13.5 10.125C13.5 9.97579 13.5593 9.83271 13.6648 9.72722C13.7702 9.62173 13.9133 9.56247 14.0625 9.56247H15.5201C14.7945 6.83013 12.4263 4.76434 9.5625 4.52388V6.18747C9.5625 6.33665 9.50324 6.47973 9.39775 6.58522C9.29226 6.69071 9.14918 6.74997 9 6.74997C8.85082 6.74997 8.70774 6.69071 8.60225 6.58522C8.49676 6.47973 8.4375 6.33665 8.4375 6.18747V4.52317C7.04204 4.64061 5.71749 5.18854 4.64688 6.09125C3.57627 6.99397 2.81244 8.20691 2.46094 9.56247H3.9375C4.08668 9.56247 4.22976 9.62173 4.33525 9.72722C4.44074 9.83271 4.5 9.97579 4.5 10.125C4.5 10.2742 4.44074 10.4172 4.33525 10.5227C4.22976 10.6282 4.08668 10.6875 3.9375 10.6875H2.2732C2.25844 10.8738 2.25 11.0608 2.25 11.25V12.9375Z" fill="#0064FA"/>
</svg>
