<svg width="24" height="25" viewBox="0 0 24 25" fill="none" xmlns="http://www.w3.org/2000/svg">
<path d="M5 10.1403C3.9 10.1403 3 11.0371 3 12.1331C3 13.2291 3.9 14.1259 5 14.1259C6.1 14.1259 7 13.2291 7 12.1331C7 11.0371 6.1 10.1403 5 10.1403Z" stroke="white" stroke-width="1.5"/>
<path d="M19 10.1403C17.9 10.1403 17 11.0371 17 12.1331C17 13.2291 17.9 14.1259 19 14.1259C20.1 14.1259 21 13.2291 21 12.1331C21 11.0371 20.1 10.1403 19 10.1403Z" stroke="white" stroke-width="1.5"/>
<path d="M12 10.1403C10.9 10.1403 10 11.0371 10 12.1331C10 13.2291 10.9 14.1259 12 14.1259C13.1 14.1259 14 13.2291 14 12.1331C14 11.0371 13.1 10.1403 12 10.1403Z" stroke="white" stroke-width="1.5"/>
</svg>
