<svg width="32" height="31" viewBox="0 0 32 31" fill="none" xmlns="http://www.w3.org/2000/svg">
<path d="M14.6875 15V1.875C14.6875 1.5269 14.8258 1.19306 15.0719 0.946923C15.3181 0.700781 15.6519 0.5625 16 0.5625C16.3481 0.5625 16.6819 0.700781 16.9281 0.946923C17.1742 1.19306 17.3125 1.5269 17.3125 1.875V15C17.3125 15.3481 17.1742 15.6819 16.9281 15.9281C16.6819 16.1742 16.3481 16.3125 16 16.3125C15.6519 16.3125 15.3181 16.1742 15.0719 15.9281C14.8258 15.6819 14.6875 15.3481 14.6875 15ZM24.592 2.08828C24.3004 1.90404 23.9482 1.84193 23.6112 1.91537C23.2743 1.9888 22.9798 2.1919 22.7914 2.48073C22.603 2.76957 22.5359 3.12094 22.6045 3.45889C22.6731 3.79684 22.8719 4.09422 23.158 4.28672C26.9495 6.75914 29.125 10.6638 29.125 15C29.125 18.481 27.7422 21.8194 25.2808 24.2808C22.8194 26.7422 19.481 28.125 16 28.125C12.519 28.125 9.18064 26.7422 6.71922 24.2808C4.25781 21.8194 2.875 18.481 2.875 15C2.875 10.6638 5.05047 6.75914 8.84195 4.28672C9.12807 4.09422 9.32692 3.79684 9.39553 3.45889C9.46414 3.12094 9.39699 2.76957 9.2086 2.48073C9.02021 2.1919 8.72572 1.9888 8.38878 1.91537C8.05185 1.84193 7.69955 1.90404 7.40805 2.08828C2.85859 5.05453 0.25 9.75984 0.25 15C0.25 19.1772 1.90937 23.1832 4.86307 26.1369C7.81677 29.0906 11.8228 30.75 16 30.75C20.1772 30.75 24.1832 29.0906 27.1369 26.1369C30.0906 23.1832 31.75 19.1772 31.75 15C31.75 9.75984 29.1414 5.05453 24.592 2.08828Z" fill="#898989"/>
</svg>
