<svg width="34" height="34" viewBox="0 0 34 34" fill="none" xmlns="http://www.w3.org/2000/svg">
<path d="M27.625 4.25H24.4375V3.1875C24.4375 2.90571 24.3256 2.63546 24.1263 2.4362C23.927 2.23694 23.6568 2.125 23.375 2.125C23.0932 2.125 22.823 2.23694 22.6237 2.4362C22.4244 2.63546 22.3125 2.90571 22.3125 3.1875V4.25H11.6875V3.1875C11.6875 2.90571 11.5756 2.63546 11.3763 2.4362C11.177 2.23694 10.9068 2.125 10.625 2.125C10.3432 2.125 10.073 2.23694 9.8737 2.4362C9.67444 2.63546 9.5625 2.90571 9.5625 3.1875V4.25H6.375C5.81141 4.25 5.27091 4.47388 4.8724 4.8724C4.47388 5.27091 4.25 5.81141 4.25 6.375V27.625C4.25 28.1886 4.47388 28.7291 4.8724 29.1276C5.27091 29.5261 5.81141 29.75 6.375 29.75H27.625C28.1886 29.75 28.7291 29.5261 29.1276 29.1276C29.5261 28.7291 29.75 28.1886 29.75 27.625V6.375C29.75 5.81141 29.5261 5.27091 29.1276 4.8724C28.7291 4.47388 28.1886 4.25 27.625 4.25ZM9.5625 6.375V7.4375C9.5625 7.71929 9.67444 7.98954 9.8737 8.1888C10.073 8.38806 10.3432 8.5 10.625 8.5C10.9068 8.5 11.177 8.38806 11.3763 8.1888C11.5756 7.98954 11.6875 7.71929 11.6875 7.4375V6.375H22.3125V7.4375C22.3125 7.71929 22.4244 7.98954 22.6237 8.1888C22.823 8.38806 23.0932 8.5 23.375 8.5C23.6568 8.5 23.927 8.38806 24.1263 8.1888C24.3256 7.98954 24.4375 7.71929 24.4375 7.4375V6.375H27.625V10.625H6.375V6.375H9.5625ZM27.625 27.625H6.375V12.75H27.625V27.625ZM14.875 15.9375V24.4375C14.875 24.7193 14.7631 24.9895 14.5638 25.1888C14.3645 25.3881 14.0943 25.5 13.8125 25.5C13.5307 25.5 13.2605 25.3881 13.0612 25.1888C12.8619 24.9895 12.75 24.7193 12.75 24.4375V17.6561L12.163 17.9509C11.9108 18.077 11.6188 18.0978 11.3513 18.0086C11.0838 17.9195 10.8627 17.7277 10.7366 17.4755C10.6105 17.2233 10.5897 16.9313 10.6789 16.6638C10.768 16.3963 10.9598 16.1752 11.212 16.0491L13.337 14.9866C13.4991 14.9055 13.6792 14.8672 13.8602 14.8753C14.0412 14.8834 14.2171 14.9377 14.3713 15.033C14.5254 15.1283 14.6526 15.2615 14.7407 15.4198C14.8289 15.5781 14.8751 15.7563 14.875 15.9375ZM22.7322 19.9816L20.1875 23.375H22.3125C22.5943 23.375 22.8645 23.4869 23.0638 23.6862C23.2631 23.8855 23.375 24.1557 23.375 24.4375C23.375 24.7193 23.2631 24.9895 23.0638 25.1888C22.8645 25.3881 22.5943 25.5 22.3125 25.5H18.0625C17.8652 25.5 17.6718 25.4451 17.5039 25.3413C17.3361 25.2376 17.2004 25.0892 17.1122 24.9127C17.0239 24.7362 16.9866 24.5386 17.0043 24.3421C17.022 24.1456 17.0941 23.9579 17.2125 23.8L21.0348 18.704C21.1218 18.5882 21.1842 18.4559 21.2181 18.3152C21.2521 18.1745 21.257 18.0283 21.2324 17.8857C21.2079 17.743 21.1544 17.6069 21.0754 17.4856C20.9963 17.3643 20.8933 17.2605 20.7727 17.1805C20.6521 17.1004 20.5163 17.0459 20.3739 17.0202C20.2314 16.9945 20.0852 16.9982 19.9442 17.0311C19.8032 17.0639 19.6705 17.1252 19.554 17.2112C19.4376 17.2972 19.3399 17.4061 19.2671 17.5312C19.1994 17.6559 19.1074 17.7658 18.9966 17.8544C18.8857 17.9429 18.7582 18.0084 18.6217 18.0469C18.4851 18.0854 18.3422 18.0961 18.2014 18.0785C18.0606 18.0609 17.9248 18.0152 17.802 17.9443C17.6791 17.8733 17.5717 17.7785 17.4861 17.6653C17.4005 17.5522 17.3384 17.423 17.3035 17.2855C17.2686 17.148 17.2616 17.0048 17.283 16.8646C17.3043 16.7243 17.3535 16.5897 17.4277 16.4688C17.7786 15.8614 18.3202 15.3868 18.9683 15.1184C19.6164 14.8501 20.335 14.8031 21.0126 14.9847C21.6901 15.1663 22.2889 15.5663 22.716 16.1227C23.1431 16.6792 23.3748 17.361 23.375 18.0625C23.3773 18.7554 23.1514 19.4299 22.7322 19.9816Z" fill="white"/>
</svg>
