<svg width="34" height="34" viewBox="0 0 34 34" fill="none" xmlns="http://www.w3.org/2000/svg">
<path d="M16.9992 10.6249C15.7383 10.6249 14.5058 10.9988 13.4574 11.6993C12.4091 12.3998 11.592 13.3955 11.1095 14.5603C10.627 15.7252 10.5007 17.007 10.7467 18.2436C10.9927 19.4803 11.5998 20.6162 12.4914 21.5077C13.383 22.3993 14.5189 23.0065 15.7555 23.2524C16.9921 23.4984 18.2739 23.3722 19.4388 22.8897C20.6037 22.4072 21.5993 21.5901 22.2998 20.5417C23.0003 19.4933 23.3742 18.2608 23.3742 16.9999C23.3724 15.3097 22.7002 13.6892 21.5051 12.4941C20.3099 11.2989 18.6894 10.6267 16.9992 10.6249ZM16.9992 21.2499C16.1586 21.2499 15.3369 21.0007 14.638 20.5337C13.9391 20.0667 13.3944 19.4029 13.0727 18.6263C12.751 17.8498 12.6669 16.9952 12.8309 16.1708C12.9949 15.3464 13.3996 14.5891 13.994 13.9947C14.5884 13.4004 15.3457 12.9956 16.1701 12.8316C16.9945 12.6676 17.849 12.7518 18.6256 13.0735C19.4022 13.3951 20.066 13.9399 20.533 14.6388C20.9999 15.3377 21.2492 16.1594 21.2492 16.9999C21.2492 18.1271 20.8014 19.2081 20.0044 20.0051C19.2074 20.8022 18.1264 21.2499 16.9992 21.2499ZM28.6867 17.2868C28.692 17.0956 28.692 16.9043 28.6867 16.7131L30.6683 14.2374C30.7722 14.1075 30.8441 13.9549 30.8782 13.792C30.9124 13.6292 30.9078 13.4605 30.8648 13.2998C30.54 12.0787 30.0541 10.9063 29.4198 9.81345C29.3368 9.67044 29.2215 9.54878 29.0832 9.45817C28.9448 9.36755 28.7872 9.31048 28.623 9.2915L25.4726 8.94088C25.3416 8.80275 25.2088 8.66994 25.0742 8.54244L24.7023 5.38416C24.6832 5.21975 24.6259 5.06209 24.5351 4.92374C24.4442 4.78539 24.3223 4.67017 24.1791 4.58728C23.0858 3.95423 21.9135 3.46878 20.6927 3.14361C20.5319 3.10084 20.3632 3.09647 20.2003 3.13084C20.0374 3.16521 19.8849 3.23737 19.7551 3.3415L17.2861 5.31244C17.0948 5.31244 16.9036 5.31244 16.7123 5.31244L14.2367 3.33486C14.1067 3.23096 13.9542 3.15904 13.7913 3.1249C13.6284 3.09076 13.4598 3.09535 13.2991 3.1383C12.0782 3.46372 10.9058 3.94963 9.81272 4.5833C9.66971 4.66634 9.54805 4.78162 9.45744 4.91996C9.36682 5.0583 9.30975 5.21589 9.29077 5.38017L8.94014 8.5358C8.80202 8.66772 8.66921 8.80054 8.54171 8.93424L5.38342 9.29681C5.21902 9.31594 5.06136 9.37321 4.923 9.46406C4.78465 9.55491 4.66944 9.67683 4.58655 9.8201C3.95349 10.9134 3.46805 12.0857 3.14288 13.3064C3.10011 13.4673 3.09573 13.636 3.13011 13.7988C3.16448 13.9617 3.23664 14.1142 3.34077 14.2441L5.31171 16.7131C5.31171 16.9043 5.31171 17.0956 5.31171 17.2868L3.33413 19.7624C3.23023 19.8924 3.15831 20.045 3.12417 20.2079C3.09002 20.3707 3.09461 20.5393 3.13757 20.7001C3.46241 21.9212 3.94834 23.0936 4.58257 24.1864C4.66561 24.3294 4.78089 24.4511 4.91923 24.5417C5.05757 24.6323 5.21516 24.6894 5.37944 24.7084L8.52975 25.059C8.66168 25.1971 8.79449 25.3299 8.92819 25.4574L9.29608 28.6157C9.31521 28.7801 9.37248 28.9378 9.46333 29.0761C9.55418 29.2145 9.6761 29.3297 9.81936 29.4126C10.9126 30.0457 12.0849 30.5311 13.3057 30.8563C13.4666 30.899 13.6352 30.9034 13.7981 30.869C13.961 30.8347 14.1135 30.7625 14.2433 30.6584L16.7123 28.6874C16.9036 28.6928 17.0948 28.6928 17.2861 28.6874L19.7617 30.669C19.8917 30.7729 20.0443 30.8448 20.2071 30.879C20.37 30.9131 20.5386 30.9085 20.6994 30.8656C21.9204 30.5407 23.0928 30.0548 24.1857 29.4206C24.3287 29.3375 24.4504 29.2222 24.541 29.0839C24.6316 28.9456 24.6887 28.788 24.7076 28.6237L25.0583 25.4734C25.1964 25.3423 25.3292 25.2095 25.4567 25.0749L28.615 24.7031C28.7794 24.6839 28.9371 24.6267 29.0754 24.5358C29.2138 24.445 29.329 24.323 29.4119 24.1798C30.0449 23.0865 30.5304 21.9142 30.8555 20.6935C30.8983 20.5326 30.9027 20.3639 30.8683 20.201C30.8339 20.0382 30.7618 19.8857 30.6576 19.7558L28.6867 17.2868ZM26.5484 16.4235C26.571 16.8075 26.571 17.1924 26.5484 17.5763C26.5326 17.8392 26.615 18.0986 26.7795 18.3042L28.6641 20.6589C28.4479 21.3462 28.171 22.0129 27.8367 22.6511L24.8351 22.9911C24.5737 23.0201 24.3324 23.1451 24.1578 23.3417C23.9021 23.6293 23.6299 23.9016 23.3423 24.1572C23.1457 24.3318 23.0207 24.5732 22.9917 24.8345L22.6583 27.8335C22.0202 28.1679 21.3535 28.4448 20.6662 28.6609L18.3101 26.7763C18.1215 26.6256 17.8873 26.5437 17.646 26.5438H17.5823C17.1983 26.5664 16.8134 26.5664 16.4294 26.5438C16.1666 26.528 15.9072 26.6104 15.7016 26.7749L13.3402 28.6609C12.653 28.4446 11.9863 28.1677 11.348 27.8335L11.008 24.8359C10.979 24.5745 10.8541 24.3331 10.6574 24.1585C10.3699 23.9029 10.0976 23.6306 9.84194 23.3431C9.66734 23.1464 9.42599 23.0215 9.1646 22.9924L6.16569 22.6578C5.83126 22.0196 5.55436 21.3529 5.33827 20.6656L7.22288 18.3095C7.38744 18.1039 7.46979 17.8445 7.45397 17.5817C7.43139 17.1977 7.43139 16.8128 7.45397 16.4288C7.46979 16.166 7.38744 15.9066 7.22288 15.701L5.33827 13.341C5.55452 12.6537 5.83142 11.987 6.16569 11.3488L9.16327 11.0088C9.42466 10.9798 9.66601 10.8548 9.84061 10.6581C10.0963 10.3706 10.3686 10.0983 10.6561 9.84267C10.8535 9.66795 10.979 9.42606 11.008 9.164L11.3414 6.16642C11.9796 5.83199 12.6463 5.55509 13.3336 5.339L15.6897 7.22361C15.8953 7.38817 16.1546 7.47053 16.4175 7.4547C16.8014 7.43213 17.1864 7.43213 17.5703 7.4547C17.8332 7.47053 18.0925 7.38817 18.2981 7.22361L20.6582 5.339C21.3455 5.55525 22.0121 5.83215 22.6504 6.16642L22.9904 9.164C23.0194 9.4254 23.1443 9.66674 23.341 9.84134C23.6285 10.097 23.9008 10.3693 24.1565 10.6568C24.3311 10.8535 24.5724 10.9784 24.8338 11.0074L27.8327 11.3408C28.1672 11.979 28.4441 12.6457 28.6601 13.333L26.7755 15.6891C26.6094 15.8964 26.5269 16.1584 26.5444 16.4235H26.5484Z" fill="#D9D9D9"/>
</svg>
