<svg width="34" height="34" viewBox="0 0 34 34" fill="none" xmlns="http://www.w3.org/2000/svg">
<path d="M29.75 26.5625H28.6875V5.3125C28.6875 5.03071 28.5756 4.76046 28.3763 4.5612C28.177 4.36194 27.9068 4.25 27.625 4.25H20.1875C19.9057 4.25 19.6355 4.36194 19.4362 4.5612C19.2369 4.76046 19.125 5.03071 19.125 5.3125V10.625H12.75C12.4682 10.625 12.198 10.7369 11.9987 10.9362C11.7994 11.1355 11.6875 11.4057 11.6875 11.6875V17H6.375C6.09321 17 5.82296 17.1119 5.6237 17.3112C5.42444 17.5105 5.3125 17.7807 5.3125 18.0625V26.5625H4.25C3.96821 26.5625 3.69796 26.6744 3.4987 26.8737C3.29944 27.073 3.1875 27.3432 3.1875 27.625C3.1875 27.9068 3.29944 28.177 3.4987 28.3763C3.69796 28.5756 3.96821 28.6875 4.25 28.6875H29.75C30.0318 28.6875 30.302 28.5756 30.5013 28.3763C30.7006 28.177 30.8125 27.9068 30.8125 27.625C30.8125 27.3432 30.7006 27.073 30.5013 26.8737C30.302 26.6744 30.0318 26.5625 29.75 26.5625ZM21.25 6.375H26.5625V26.5625H21.25V6.375ZM13.8125 12.75H19.125V26.5625H13.8125V12.75ZM7.4375 19.125H11.6875V26.5625H7.4375V19.125Z" fill="white"/>
</svg>
