<svg width="34" height="35" viewBox="0 0 34 35" fill="none" xmlns="http://www.w3.org/2000/svg">
<path d="M23.5623 11.1967C23.4027 10.9647 23.3417 10.6789 23.3928 10.4019C23.4438 10.125 23.6027 9.87969 23.8345 9.71984C25.2158 8.76625 27.378 8.76625 28.7592 9.71984C29.4233 10.1807 30.6027 10.1807 31.272 9.71984C31.504 9.57246 31.784 9.52069 32.0533 9.57539C32.3227 9.6301 32.5603 9.78703 32.7164 10.0132C32.8724 10.2394 32.9348 10.5173 32.8904 10.7885C32.8459 11.0597 32.6981 11.3031 32.478 11.4677C31.7415 11.9343 30.8875 12.1821 30.0156 12.1821C29.1437 12.1821 28.2898 11.9343 27.5533 11.4677C26.8892 11.0068 25.7098 11.0068 25.0405 11.4677C24.9256 11.5469 24.7963 11.6028 24.6598 11.6321C24.5234 11.6614 24.3825 11.6636 24.2452 11.6384C24.108 11.6132 23.977 11.5613 23.8598 11.4855C23.7426 11.4097 23.6415 11.3116 23.5623 11.1967ZM31.272 13.9698C30.608 14.4307 29.4286 14.4307 28.7592 13.9698C27.378 13.0162 25.2158 13.0162 23.8345 13.9698C23.7139 14.0465 23.61 14.1467 23.529 14.2644C23.448 14.3822 23.3916 14.5151 23.3631 14.6551C23.3347 14.7952 23.3348 14.9395 23.3634 15.0796C23.392 15.2196 23.4486 15.3524 23.5298 15.47C23.611 15.5877 23.715 15.6877 23.8358 15.7642C23.9565 15.8407 24.0914 15.892 24.2325 15.9151C24.3735 15.9383 24.5178 15.9327 24.6566 15.8987C24.7954 15.8648 24.926 15.8032 25.0405 15.7177C25.7045 15.2568 26.8839 15.2568 27.5533 15.7177C28.2898 16.1843 29.1437 16.4321 30.0156 16.4321C30.8875 16.4321 31.7415 16.1843 32.478 15.7177C32.6981 15.5531 32.8459 15.3097 32.8904 15.0385C32.9348 14.7673 32.8724 14.4894 32.7164 14.2632C32.5603 14.037 32.3227 13.8801 32.0533 13.8254C31.784 13.7707 31.504 13.8225 31.272 13.9698ZM20.1875 24.9375C20.1871 25.7323 19.9638 26.5111 19.5431 27.1853C19.1223 27.8596 18.5209 28.4024 17.8071 28.752C17.0933 29.1017 16.2958 29.2442 15.5051 29.1633C14.7145 29.0824 13.9623 28.7815 13.3341 28.2946C12.7058 27.8077 12.2267 27.1545 11.9512 26.409C11.6756 25.6635 11.6146 24.8556 11.775 24.0772C11.9355 23.2988 12.3111 22.5809 12.859 22.0052C13.407 21.4295 14.1054 21.019 14.875 20.8203V6.875C14.875 6.59321 14.9869 6.32296 15.1862 6.1237C15.3855 5.92444 15.6557 5.8125 15.9375 5.8125C16.2193 5.8125 16.4895 5.92444 16.6888 6.1237C16.8881 6.32296 17 6.59321 17 6.875V20.8203C17.912 21.0572 18.7196 21.5899 19.2964 22.3349C19.8732 23.08 20.1866 23.9953 20.1875 24.9375ZM18.0625 24.9375C18.0625 24.5172 17.9379 24.1064 17.7044 23.7569C17.4709 23.4075 17.139 23.1351 16.7507 22.9743C16.3624 22.8134 15.9351 22.7713 15.5229 22.8533C15.1107 22.9353 14.7321 23.1377 14.4349 23.4349C14.1377 23.7321 13.9353 24.1107 13.8533 24.5229C13.7713 24.9351 13.8134 25.3624 13.9743 25.7507C14.1351 26.139 14.4075 26.4709 14.7569 26.7044C15.1064 26.9379 15.5172 27.0625 15.9375 27.0625C16.5011 27.0625 17.0416 26.8386 17.4401 26.4401C17.8386 26.0416 18.0625 25.5011 18.0625 24.9375ZM24.4375 24.9375C24.4366 26.3748 24.0713 27.7883 23.3756 29.0461C22.68 30.3038 21.6768 31.3646 20.4599 32.1293C19.2429 32.894 17.8519 33.3376 16.4169 33.4187C14.982 33.4997 13.5498 33.2156 12.2545 32.5928C10.9592 31.9701 9.84288 31.029 9.01003 29.8576C8.17718 28.6863 7.65496 27.3228 7.49219 25.8948C7.32942 24.4668 7.53141 23.0208 8.07929 21.6921C8.62717 20.3633 9.50303 19.1952 10.625 18.2969V6.875C10.625 5.46604 11.1847 4.11478 12.181 3.1185C13.1773 2.12221 14.5285 1.5625 15.9375 1.5625C17.3465 1.5625 18.6977 2.12221 19.694 3.1185C20.6903 4.11478 21.25 5.46604 21.25 6.875V18.2969C22.2448 19.0943 23.0477 20.1051 23.5994 21.2545C24.1511 22.4039 24.4375 23.6625 24.4375 24.9375ZM22.3125 24.9375C22.3117 23.9097 22.0627 22.8973 21.5869 21.9863C21.111 21.0752 20.4223 20.2926 19.5792 19.7047C19.4382 19.6062 19.3232 19.475 19.2441 19.3224C19.165 19.1697 19.1241 19.0001 19.125 18.8281V6.875C19.125 6.02962 18.7892 5.21887 18.1914 4.6211C17.5936 4.02333 16.7829 3.6875 15.9375 3.6875C15.0921 3.6875 14.2814 4.02333 13.6836 4.6211C13.0858 5.21887 12.75 6.02962 12.75 6.875V18.8281C12.75 18.9992 12.7087 19.1677 12.6297 19.3194C12.5506 19.4711 12.436 19.6014 12.2958 19.6994C11.3962 20.3255 10.6733 21.1729 10.1967 22.1599C9.72014 23.1468 9.50608 24.24 9.57519 25.3338C9.6443 26.4276 9.99425 27.4852 10.5912 28.4043C11.1882 29.3234 12.0121 30.0731 12.9833 30.581C13.9545 31.0889 15.0403 31.3378 16.1358 31.3037C17.2312 31.2697 18.2994 30.9537 19.2372 30.3864C20.1749 29.8192 20.9506 29.0197 21.4893 28.0652C22.028 27.1107 22.3115 26.0335 22.3125 24.9375Z" fill="white"/>
</svg>
