<svg width="18" height="18" viewBox="0 0 18 18" fill="none" xmlns="http://www.w3.org/2000/svg">
<path d="M9 0C7.21997 0 5.47991 0.527841 3.99987 1.51677C2.51983 2.50571 1.36628 3.91131 0.685088 5.55585C0.00389956 7.20038 -0.17433 9.00998 0.172937 10.7558C0.520203 12.5016 1.37737 14.1053 2.63604 15.364C3.89471 16.6226 5.49836 17.4798 7.24419 17.8271C8.99002 18.1743 10.7996 17.9961 12.4442 17.3149C14.0887 16.6337 15.4943 15.4802 16.4832 14.0001C17.4722 12.5201 18 10.78 18 9C17.9975 6.61382 17.0485 4.3261 15.3612 2.63882C13.6739 0.95154 11.3862 0.00251984 9 0ZM9.69231 1.41663C10.161 1.4594 10.6246 1.54633 11.0769 1.67625V16.3272C10.6246 16.4571 10.161 16.5441 9.69231 16.5868V1.41663ZM12.4615 2.21798C12.955 2.47061 13.4193 2.77646 13.8462 3.1301V14.8699C13.4193 15.2235 12.955 15.5294 12.4615 15.782V2.21798ZM1.38462 9C1.3869 7.10083 2.09785 5.27087 3.37832 3.86828C4.65878 2.46569 6.41659 1.59144 8.30769 1.41663V16.5834C6.41659 16.4086 4.65878 15.5343 3.37832 14.1317C2.09785 12.7291 1.3869 10.8992 1.38462 9ZM15.2308 13.3737V4.62635C16.1318 5.90679 16.6154 7.43429 16.6154 9C16.6154 10.5657 16.1318 12.0932 15.2308 13.3737Z" fill="#888888"/>
</svg>
