<svg width="34" height="34" viewBox="0 0 34 34" fill="none" xmlns="http://www.w3.org/2000/svg">
<path d="M3.1875 12.75V22.3125C3.1875 22.5943 3.29944 22.8645 3.4987 23.0638C3.69796 23.2631 3.96821 23.375 4.25 23.375H14.875C15.1568 23.375 15.427 23.4869 15.6263 23.6862C15.8256 23.8855 15.9375 24.1557 15.9375 24.4375C15.9375 24.7193 15.8256 24.9895 15.6263 25.1888C15.427 25.3881 15.1568 25.5 14.875 25.5H12.75V27.625H14.875C15.1568 27.625 15.427 27.7369 15.6263 27.9362C15.8256 28.1355 15.9375 28.4057 15.9375 28.6875C15.9375 28.9693 15.8256 29.2395 15.6263 29.4388C15.427 29.6381 15.1568 29.75 14.875 29.75H8.5C8.21821 29.75 7.94796 29.6381 7.7487 29.4388C7.54944 29.2395 7.4375 28.9693 7.4375 28.6875C7.4375 28.4057 7.54944 28.1355 7.7487 27.9362C7.94796 27.7369 8.21821 27.625 8.5 27.625H10.625V25.5H4.25C3.40462 25.5 2.59387 25.1642 1.9961 24.5664C1.39832 23.9686 1.0625 23.1579 1.0625 22.3125V12.75C1.0625 11.9046 1.39832 11.0939 1.9961 10.4961C2.59387 9.89832 3.40462 9.5625 4.25 9.5625H14.875C15.1568 9.5625 15.427 9.67444 15.6263 9.8737C15.8256 10.073 15.9375 10.3432 15.9375 10.625C15.9375 10.9068 15.8256 11.177 15.6263 11.3763C15.427 11.5756 15.1568 11.6875 14.875 11.6875H4.25C3.96821 11.6875 3.69796 11.7994 3.4987 11.9987C3.29944 12.198 3.1875 12.4682 3.1875 12.75ZM27.625 8.5H23.375C23.0932 8.5 22.823 8.61194 22.6237 8.8112C22.4244 9.01046 22.3125 9.28071 22.3125 9.5625C22.3125 9.84429 22.4244 10.1145 22.6237 10.3138C22.823 10.5131 23.0932 10.625 23.375 10.625H27.625C27.9068 10.625 28.177 10.5131 28.3763 10.3138C28.5756 10.1145 28.6875 9.84429 28.6875 9.5625C28.6875 9.28071 28.5756 9.01046 28.3763 8.8112C28.177 8.61194 27.9068 8.5 27.625 8.5ZM27.625 12.75H23.375C23.0932 12.75 22.823 12.8619 22.6237 13.0612C22.4244 13.2605 22.3125 13.5307 22.3125 13.8125C22.3125 14.0943 22.4244 14.3645 22.6237 14.5638C22.823 14.7631 23.0932 14.875 23.375 14.875H27.625C27.9068 14.875 28.177 14.7631 28.3763 14.5638C28.5756 14.3645 28.6875 14.0943 28.6875 13.8125C28.6875 13.5307 28.5756 13.2605 28.3763 13.0612C28.177 12.8619 27.9068 12.75 27.625 12.75ZM32.9375 6.375V27.625C32.9375 28.1886 32.7136 28.7291 32.3151 29.1276C31.9166 29.5261 31.3761 29.75 30.8125 29.75H20.1875C19.6239 29.75 19.0834 29.5261 18.6849 29.1276C18.2864 28.7291 18.0625 28.1886 18.0625 27.625V6.375C18.0625 5.81141 18.2864 5.27091 18.6849 4.8724C19.0834 4.47388 19.6239 4.25 20.1875 4.25H30.8125C31.3761 4.25 31.9166 4.47388 32.3151 4.8724C32.7136 5.27091 32.9375 5.81141 32.9375 6.375ZM30.8125 27.625V6.375H20.1875V27.625H30.8125ZM25.5 22.3125C25.1848 22.3125 24.8767 22.406 24.6146 22.5811C24.3525 22.7562 24.1482 23.0051 24.0276 23.2963C23.9069 23.5876 23.8754 23.908 23.9369 24.2172C23.9984 24.5263 24.1502 24.8103 24.373 25.0332C24.5959 25.2561 24.8799 25.4079 25.1891 25.4694C25.4982 25.5309 25.8187 25.4993 26.1099 25.3787C26.4011 25.2581 26.65 25.0538 26.8252 24.7917C27.0003 24.5296 27.0938 24.2215 27.0938 23.9062C27.0938 23.4836 26.9258 23.0782 26.627 22.7793C26.3281 22.4804 25.9227 22.3125 25.5 22.3125Z" fill="white"/>
</svg>
