<svg width="24" height="24" viewBox="0 0 24 24" fill="none" xmlns="http://www.w3.org/2000/svg">
<path d="M22.875 5.25V11.25C22.875 11.5484 22.7564 11.8345 22.5455 12.0455C22.3345 12.2565 22.0483 12.375 21.75 12.375C21.4516 12.375 21.1654 12.2565 20.9545 12.0455C20.7435 11.8345 20.625 11.5484 20.625 11.25V7.96875L13.5459 15.0488C13.4414 15.1536 13.3172 15.2368 13.1804 15.2936C13.0437 15.3504 12.8971 15.3796 12.749 15.3796C12.601 15.3796 12.4543 15.3504 12.3176 15.2936C12.1809 15.2368 12.0567 15.1536 11.9521 15.0488L8.99996 12.0938L3.0459 18.0459C2.83455 18.2573 2.54791 18.376 2.24902 18.376C1.95014 18.376 1.66349 18.2573 1.45215 18.0459C1.2408 17.8346 1.12207 17.5479 1.12207 17.2491C1.12207 16.9502 1.2408 16.6635 1.45215 16.4522L8.20215 9.70219C8.30666 9.59731 8.43086 9.51409 8.5676 9.45731C8.70435 9.40053 8.85096 9.3713 8.99902 9.3713C9.14709 9.3713 9.2937 9.40053 9.43044 9.45731C9.56719 9.51409 9.69138 9.59731 9.7959 9.70219L12.75 12.6562L19.0312 6.375H15.75C15.4516 6.375 15.1654 6.25647 14.9545 6.0455C14.7435 5.83452 14.625 5.54837 14.625 5.25C14.625 4.95163 14.7435 4.66548 14.9545 4.4545C15.1654 4.24353 15.4516 4.125 15.75 4.125H21.75C22.0483 4.125 22.3345 4.24353 22.5455 4.4545C22.7564 4.66548 22.875 4.95163 22.875 5.25Z" fill="#CC0A0A"/>
</svg>
